# xmcd
#
# Track frame offsets: 
#        150
#        14215
#        29259
#        46035
#        63463
#        79805
#        98310
#        116864
#        132662
#        147535
#        162283
#        178272
#        193589
#        209727
#        222917
#        240603
#        251338
#
# Disc length: 3495 seconds
#
# Revision: 0
# Processed by: cddbd v1.5.2PL0 Copyright (c) Steve Scherf et al.
# Submitted via: ExactAudioCopy v0.95b4
#
DISCID=000da511
DTITLE=The baseballs - Strike! Back
DYEAR=2010
DGENRE=Rock and Roll
TTITLE0=Umbrella
TTITLE1=Love in this club
TTITLE2=Hey there Delilah
TTITLE3=Bleeding love
TTITLE4=Hot N Cold
TTITLE5=I dont feel like dancing
TTITLE6=Dont cha
TTITLE7=Lets get loud
TTITLE8=Angels
TTITLE9=Crazy in love
TTITLE10=This love
TTITLE11=The look
TTITLE12=No one
TTITLE13=Chasing cars
TTITLE14=Monday morning
TTITLE15=Poker face
TTITLE16=Jungle drum
EXTD=
EXTT0=
EXTT1=
EXTT2=
EXTT3=
EXTT4=
EXTT5=
EXTT6=
EXTT7=
EXTT8=
EXTT9=
EXTT10=
EXTT11=
EXTT12=
EXTT13=
EXTT14=
EXTT15=
EXTT16=
PLAYORDER=
